<svg xmlns="http://www.w3.org/2000/svg" width="600" height="100" viewBox="0 0 600 100"><rect width="100%" height="100%" fill="#B0E0E6"/><path fill="#FF0000" d="M209.12 46.06h5.03q1.85 0 3.22-.46 1.38-.46 2.29-1.32.91-.87 1.36-2.1.45-1.24.45-2.77 0-1.45-.45-2.62-.45-1.18-1.35-2-.9-.83-2.27-1.26-1.38-.44-3.25-.44h-5.03zm-6.72-18.17h11.75q3.62 0 6.27.85t4.38 2.37q1.72 1.53 2.56 3.65.84 2.13.84 4.65 0 2.63-.88 4.82-.87 2.18-2.62 3.76-1.75 1.57-4.39 2.45-2.64.87-6.16.87h-5.03v12.73h-6.72zm35.42 12.05.38 2.9q1.2-2.3 2.85-3.61 1.65-1.32 3.9-1.32 1.77 0 2.85.78l-.4 4.62q-.13.45-.37.64-.23.19-.63.19-.38 0-1.12-.13-.73-.12-1.43-.12-1.03 0-1.83.3t-1.44.86q-.63.56-1.12 1.36-.49.81-.91 1.83v15.8h-6.18V38.39H236q.95 0 1.32.34.38.33.5 1.21m24.55-1.95q2.85 0 5.19.92 2.34.93 4 2.63t2.56 4.15.9 5.47q0 3.05-.9 5.5t-2.56 4.18q-1.66 1.72-4 2.65t-5.19.93q-2.87 0-5.22-.93t-4.01-2.65q-1.67-1.73-2.58-4.18t-.91-5.5q0-3.02.91-5.47t2.58-4.15q1.66-1.7 4.01-2.63 2.35-.92 5.22-.92m0 21.67q3.2 0 4.74-2.15t1.54-6.3-1.54-6.32q-1.54-2.18-4.74-2.18-3.25 0-4.81 2.19T256 51.21q0 4.13 1.56 6.29t4.81 2.16m17.58-21.27h6.2v26.53q0 1.67-.44 3.15-.44 1.47-1.4 2.58-.96 1.12-2.53 1.75-1.56.64-3.81.64-.87 0-1.62-.11t-1.55-.36l.22-3.33q.08-.5.4-.64.33-.14 1.25-.14.93 0 1.57-.18.63-.19 1.01-.6.37-.41.53-1.09.17-.67.17-1.67zm7.05-7.48q0 .8-.33 1.5-.32.7-.86 1.23-.54.52-1.27.84-.74.31-1.57.31-.8 0-1.5-.31-.7-.32-1.22-.84-.53-.53-.84-1.23t-.31-1.5q0-.82.31-1.55.31-.72.84-1.25.52-.52 1.22-.83.7-.32 1.5-.32.83 0 1.57.32.73.31 1.27.83.54.53.86 1.25.33.73.33 1.55m10.32 17.35h11.65q0-1.2-.33-2.26-.34-1.06-1.02-1.86-.67-.8-1.71-1.26-1.04-.47-2.41-.47-2.68 0-4.21 1.53-1.54 1.53-1.97 4.32m15.75 3.73H297.2q.15 1.97.7 3.41t1.45 2.38q.9.93 2.14 1.4 1.23.46 2.73.46t2.59-.35 1.9-.78q.81-.42 1.43-.77.61-.35 1.18-.35.78 0 1.15.57l1.78 2.25q-1.03 1.2-2.3 2.02-1.28.81-2.66 1.3-1.39.48-2.83.69-1.44.2-2.79.2-2.67 0-4.97-.89t-4-2.63-2.68-4.3q-.97-2.56-.97-5.94 0-2.62.85-4.93.85-2.32 2.44-4.03 1.58-1.71 3.87-2.71t5.16-1q2.43 0 4.48.77 2.05.78 3.52 2.27 1.48 1.48 2.32 3.65.83 2.16.83 4.93 0 1.4-.3 1.89t-1.15.49m26.08-10.43-1.63 2.25q-.27.35-.53.55-.27.2-.77.2-.47 0-.92-.28-.45-.29-1.08-.65-.62-.37-1.48-.65-.87-.29-2.14-.29-1.63 0-2.85.59-1.23.58-2.04 1.69-.81 1.09-1.21 2.66-.4 1.56-.4 3.53 0 2.05.44 3.66.43 1.59 1.26 2.68.82 1.09 2 1.65 1.17.56 2.65.56 1.47 0 2.39-.36.91-.36 1.53-.8.63-.44 1.09-.8t1.04-.36q.75 0 1.12.57l1.78 2.25q-1.03 1.2-2.23 2.02-1.2.81-2.48 1.3-1.29.48-2.65.69-1.37.2-2.72.2-2.37 0-4.47-.89t-3.68-2.59q-1.57-1.7-2.48-4.16-.92-2.47-.92-5.62 0-2.82.82-5.23.81-2.42 2.38-4.18 1.58-1.76 3.9-2.76 2.33-1 5.35-1 2.88 0 5.04.92 2.16.93 3.89 2.65m12.65 22.88q-3.35 0-5.14-1.89t-1.79-5.21V43.01h-2.62q-.5 0-.85-.32-.35-.33-.35-.98v-2.45l4.12-.67 1.3-7q.13-.5.48-.78.35-.27.9-.27h3.2v8.07h6.85v4.4h-6.85v13.9q0 1.2.59 1.88.58.67 1.61.67.57 0 .96-.13.39-.14.68-.29.28-.15.51-.29.22-.14.45-.14.27 0 .45.14.17.14.37.41l1.85 3q-1.35 1.13-3.1 1.7-1.75.58-3.62.58m25.1-25.9-3.25-.58q.37-2.6 1.45-4.56 1.07-1.96 2.69-3.27 1.61-1.32 3.7-1.98 2.08-.66 4.48-.66 2.5 0 4.52.71 2.01.71 3.43 1.98 1.43 1.26 2.19 2.96t.76 3.67q0 1.73-.38 3.04-.39 1.31-1.12 2.29-.72.97-1.8 1.65-1.07.67-2.42 1.12 3.25 1.03 4.85 3.13t1.6 5.27q0 2.7-1 4.78-1 2.07-2.7 3.49-1.7 1.41-3.94 2.13-2.24.73-4.74.73-2.72 0-4.75-.63-2.02-.62-3.52-1.85-1.5-1.22-2.55-3-1.05-1.77-1.8-4.1l2.72-1.12q1.08-.45 2.02-.24.93.21 1.36 1.01.45.88.99 1.73.53.85 1.28 1.51t1.77 1.08q1.01.41 2.41.41 1.57 0 2.75-.51 1.17-.52 1.96-1.34.79-.83 1.18-1.84.38-1.01.38-2.04 0-1.3-.27-2.36-.28-1.06-1.15-1.81-.88-.75-2.51-1.18-1.64-.42-4.39-.42v-4.4q2.27-.03 3.77-.43t2.39-1.11 1.24-1.71.35-2.2q0-2.55-1.43-3.88-1.42-1.32-3.8-1.32-1.1 0-2.02.31-.93.31-1.66.88-.74.56-1.24 1.31t-.75 1.65q-.43 1.15-1.11 1.52-.69.38-1.94.18"/></svg>